<svg width="487" height="482" xmlns="http://www.w3.org/2000/svg" xmlns:xlink="http://www.w3.org/1999/xlink" xml:space="preserve" overflow="hidden"><defs><clipPath id="clip0"><rect x="389" y="132" width="487" height="482"/></clipPath><clipPath id="clip1"><rect x="393" y="133" width="480" height="481"/></clipPath></defs><g clip-path="url(#clip0)" transform="translate(-389 -132)"><g clip-path="url(#clip1)"><path d="M0 0C1.71475-2.51657-0.80246-5.43501 0-9.09877-7.24626-2.72417-20.3008-8.93307-26.6621-11.6991L-26.6621-3.89993C-23.3291-6.08447-18.4756-4.52145-15.613-2.59974-19.1117-1.31352-23.1215 1.09322-26.6621-1.29955-26.1225 0.33203-25.8184 2.19915-26.012 4.56335-20.8265 0.304097-8.28362-5.13028 0 0" fill="#19316D" transform="matrix(1 0 0 -1.00138 846.428 364.583)"/><path d="M0 0C2.04678-2.79274 1.35542-8.07602 0-11.0491-8.65691-19.9828-33.424-12.6394-24.6978 1.30019-23.578 2.11598-20.3834 0.815791-17.5487 1.30019-19.6507-0.483761-23.7576-0.29013-24.6978-3.23587-23.371-11.6293-4.36972-12.9435-0.649459-5.83561-1.42398-3.40156-5.22678-3.91326-8.44931-3.89993-10.938-3.37363-9.20987-7.03866-11.6991-6.51363-12.7086-4.82618-11.063-1.35542-11.6991 1.96425-8.17252 0.926892-4.70175-0.165698 0 0" fill="#19316D" transform="matrix(1 0 0 -1.00138 845.114 381.505)"/><path d="M0 0C3.44347-4.31449 19.2362-8.54645 23.4123-1.93631 20.937 3.18063 3.7063 6.33397 0 0M25.3619-0.636127C27.2703-15.5984-2.29564-11.9899-1.94965 0.664061-1.83855 4.31449-0.0831663 6.4857 5.86354 7.79922 12.2661 9.25114 24.463 6.47173 25.3619-0.636127" fill="#19316D" transform="matrix(1 0 0 -1.00138 817.802 407.553)"/><path d="M0 0C0.206963 3.04224 1.41065 5.11695 1.94965 7.79922 7.49512 3.13873 16.3596 1.82521 24.7118 0 25.4171 0.166333 25.1543 1.28559 26.012 1.30019 26.2469 4.55002 24.4077 5.73911 22.1121 6.49967 24.1449 8.26965 27.1738 5.48961 28.6111 4.53605 27.782 0.179665 26.4545-3.7063 25.3619-7.79922 24.2281-7.64749 23.8821-6.67933 24.0617-5.19948 15.9165-3.85803 9.01624 1.59032 0 0" fill="#19316D" transform="matrix(1 0 0 -1.00138 811.303 427.729)"/><path d="M0 0C-0.539629-8.06205 13.7732-12.7225 22.1121-9.74887 19.5263-1.99155 8.75341 0.525027 0 0M24.0617-11.0491C16.7875-20.2735-3.5406-12.7505-2.60038-1.94965-1.53508 10.2606 27.6157 3.99643 24.0617-11.0491" fill="#19316D" transform="matrix(1 0 0 -1.00138 809.353 436.855)"/><path d="M0 0C-0.0412657-2.987-1.83918-4.20402-2.60038-6.49903-4.01039-6.38857-3.99643-4.85412-3.91389-3.24983-11.437-0.857692-16.9132 6.4857-26.012 5.21345-26.1644 7.75796-24.6153 8.57375-24.0484 10.4129-17.9493 10.8008-10.2472 9.59714-5.21345 11.063-10.1368 12.626-15.1978 18.807-20.8125 15.613-20.3973 18.0192-18.9867 19.4158-18.2121 21.4759-16.4841 22.0289-17.4243 20.1904-16.9132 19.5263-12.1416 13.1923 0.331395 13.4418 4.54939 6.51363-1.13385 5.03378-9.51397 6.2508-16.2625 5.86354-13.5104 2.12931-7.91032 1.18909-3.91389-1.30019-1.47985-1.99155-2.06075 0.318063 0 0" fill="#19316D" transform="matrix(1 0 0 -1.00138 822.366 468.774)"/><path d="M0 0C1.85315-0.110465 3.53996-0.0691994 3.24983 1.96361 1.20369 2.26771 0.594861 1.14782 0 0M-5.84957-5.83561C-6.11241-3.16667-0.843725-2.65497-2.59974-0.650094-4.01039-2.69687-7.81382-2.36484-9.11274-4.53605-7.10786-4.06563-7.85445-6.33397-5.84957-5.83561M-3.24983-14.2989C-5.10298-7.02469-15.0182-7.85509-19.5123-3.24983-22.0435-3.62313-23.2878-2.66894-24.7125-1.94965-24.9054-0.414562-25.7352 0.497728-25.3486 2.61371-23.7437 3.16667-22.8174 4.38369-20.8125 4.57732-18.807 0.497728-14.1884-0.95419-10.4129-3.24983-9.3343-2.58577-9.7076-0.483761-9.11274 0.663426-2.29564 1.64555-1.13385 8.32488 6.49967 8.47725 7.37069 7.17706 7.74399 5.37978 8.44995 3.92786 9.97043 4.12086 10.9113 4.93665 12.9993 4.57732 15.806-2.86257 6.16764-2.32358 1.30019-2.59974 6.4165-6.63807 14.7693-1.03736 19.499-2.59974 19.706-4.96458 19.4158-6.8317 18.8483-8.43535 15.6543-8.04808 15.6543-10.8834 14.949-12.9993 10.4961-13.5523 11.0491-9.08544 7.14976-9.08544 3.4987-9.99837 5.72514-14.5757 1.30019-15.5991 2.51721-19.2355 0.732625-22.5133-2.59974-23.3983-5.76641-22.0156-6.5549-18.2401-7.81382-14.949-6.51363-13.386-4.70175-16.0276-3.24983-14.2989M-4.54939-7.78589C-2.00488-9.19591 0.166333-7.67479 2.59974-7.13579 2.46134-3.47076-4.56335-5.33788-4.54939-7.78589" fill="#19316D" transform="matrix(1 0 0 -1.00138 826.265 284.486)"/><path d="M0 0C0.290765 2.03281-1.64555 1.82521-2.59974 2.59974-3.53996 1.36875-5.08902 0.732625-5.19885-1.30019-3.87199-2.44737-1.60365-0.580894 0 0M-11.7125-1.94965C-11.063 5.03378-2.23978 7.48116 2.60038 3.24983 5.51754 3.78883 6.04384 6.7206 10.3856 5.84957 12.3359 6.40253 6.9974 8.40805 9.73553 9.76283 13.0133 11.1043 17.8808 8.93307 16.8853 3.89993 15.1978 2.36484 11.8102 1.25829 9.08608 2.59974 4.57732 0.304097 10.6897-5.46231 6.48634-7.81319 3.92786-7.32943 3.58186-4.64652 1.93631-3.24983-3.20857-3.92786-8.93307-7.10786-11.7125-1.94965" fill="#19316D" transform="matrix(1 0 0 -1.00138 800.917 303.361)"/><path d="M0 0C2.66894-2.7794 6.6933-6.8171 11.0357-5.83497 11.3951-7.74399 9.03084-11.8921 6.48634-13.0127 5.33788-6.3473-6.41587-4.30052-10.4129 0.664061-11.5607 0.276798-14.2297 1.45192-14.3129 0-16.0689 2.8486-11.616 5.08965-11.0764 7.79986-9.15464 4.52209-6.11241 2.35088-2.59974 0.664061-0.898958 1.30019-0.857692 3.65106 0.636127 4.55002-2.25374 6.7625-5.28201 10.4409-9.7768 9.09941-8.93307 11.962-6.9701 13.6907-5.86291 16.2625-3.89993 16.498-4.50812 14.1332-3.89993 12.9993 1.90838 9.9298 7.20499 6.3619 12.3359 2.60038 14.7141 2.03281 15.806 3.74756 16.8853 2.60038 15.7095-0.331395 14.6036-3.34633 11.6852-4.53605 11.6852 0.857692 6.2508 0.843725 3.2365 3.24983 1.35542 2.9597 1.70142 0.470429 0 0" fill="#19316D" transform="matrix(1 0 0 -1.00138 800.917 481.141)"/><path d="M0 0C-5.48961-21.1585-38.1816 4.35576-20.8119 15.6124-18.1429 14.7826-16.3317 13.1371-14.3129 11.7125-16.0962 9.73553-17.7144 13.4691-20.8119 12.3486-22.319 12.155-22.2638 10.3437-23.4116 9.74887-21.0195 1.76998-12.5981-6.5276-3.23587-3.2638-2.36484 1.29955-5.39311 1.96361-5.83497 5.18551-2.7794 4.57732-2.57181 1.10592 0 0" fill="#19316D" transform="matrix(1 0 0 -1.00138 805.453 497.411)"/><path d="M0 0C1.13385 4.70175 5.64198 6.04384 7.81319 9.72157 10.0123 8.71278 12.1416 7.56432 13.0127 5.19948 10.8694 5.22741 10.5101 7.0393 7.81319 6.49967 6.859 6.12637 6.2089 5.47628 5.84957 4.53669 7.02469 1.38335 10.3298 0.359329 12.3486-1.96361 15.1972-1.10592 13.9396 1.31352 13.0127 3.2365 16.166 1.85315 18.1296-0.746592 20.1485-3.2638 18.1017-3.58186 18.6826-1.27225 16.2492-1.96361 14.7554-1.78395 15.5299-3.8447 14.3129-3.89993 16.8294-6.15304 18.8349-8.91974 22.1121-10.399 25.7631-10.2745 25.0857-4.28656 22.7482-3.2638 24.7258-1.78395 26.4545-6.04321 27.9616-7.17706 25.5136-11.2287 22.2638-14.4786 18.2121-16.9126 16.5393-8.18648 8.00682-6.30604 3.89993 0 1.83855 0.719293 2.43341 0.0558674 0 0" fill="#19316D" transform="matrix(1 0 0 -1.00138 765.792 505.222)"/><path d="M0 0C0.567562 7.19103 9.11274 5.37978 11.0637 0.650094 16.6637 2.62767 19.139 7.74399 24.0763 10.3856 23.5646 13.9256 25.0584 15.4607 26.0126 17.5487 31.6267 18.7105 37.6699 13.4691 35.1254 6.4857 31.972 2.93177 23.8268 4.34242 21.4759 0 20.716-2.82067 28.0308-6.91423 24.0763-11.077 19.8444-10.3025 18.3505-6.83106 14.9769-5.21345 11.6439-6.22287 10.7177-9.62507 8.46328-11.7264 7.1777-23.3983 11.409-29.5799 15.613-35.7888 10.4961-36.8954 5.51754-32.525 1.96425-29.9253 0.1111-23.8548 2.39278-17.7144 3.2638-12.3632-0.91229-12.0312-6.11241-17.1062-12.3486-16.9126-16.3044-16.8021-20.1485-15.1007-22.7622-12.3632-22.9831-9.32034-20.937-8.51851-19.5123-7.17706-15.9997-6.7206-16.6498-10.385-13.6488-10.4269-6.0978-10.6066-2.26771-7.0666 3.2638-5.21345 2.87654-2.7794 0.0412657-2.79337 0 0" fill="#19316D" transform="matrix(1 0 0 -1.00138 759.928 225.203)"/><path d="M0 0C-4.49415 6.14034-10.1222 11.1462-15.6124 16.2492-18.9175 14.742-14.8379 10.3437-15.6124 9.72157-18.1157 10.9246-19.6095 13.1092-20.8265 15.613-15.8752 17.3691-13.2476 21.4347-10.4129 25.3486-8.50455 23.5786-6.05654 22.3336-5.21345 19.5123-7.38466 19.5123-7.43989 21.6143-9.7768 21.4347-10.6205 21.2131-10.8002 20.3008-11.7125 20.1485-7.55036 13.9262-1.82521 9.23781 3.2365 3.89993 4.79889 3.62313 4.64652 5.07505 6.49967 4.53605 4.90935 1.34145 2.53054-1.03736-0.663426-2.59974-0.940223-1.25829-0.221565-0.91229 0 0" fill="#19316D" transform="matrix(1 0 0 -1.00138 773.605 531.27)"/><path d="M0 0C-5.48961 18.3505-13.4825 34.1985-24.0617 47.474-18.793 51.9548-11.6852 54.6098-7.14913 59.8232 17.9087 49.1202 38.3892 33.8252 53.3242 13.0127 45.1656 8.15918 36.8122 3.51266 27.3122 0 22.9285 2.32294 21.8219 7.93762 18.2128 11.063 10.8421 8.65691 7.23293 2.53054 0 0" fill="#19316D" transform="matrix(1 0 0 -1.00138 704.005 290.981)"/><path d="M0 0C3.04224 5.33788 11.091 0.926892 9.76347-5.83561 10.8694-7.32943 13.4418-7.38466 15.613-7.79922 15.7375-4.14879 13.8431-3.07017 11.7131-3.23587 13.0958-1.36875 14.5617 0.40123 17.5627 0.664061 14.1472-8.15918 21.6556-11.1322 26.6621-13.6488 25.9295-16.4422 21.3375-16.7323 19.5123-14.949 18.3924-17.0783 19.0013-20.937 16.9132-22.1121 9.09941-22.7761 6.15367-18.5442 6.49967-11.0491 3.5679-8.11728-0.414562-6.26414 0 0M8.46328-11.0491C8.02079-15.4188 16.0555-21.0614 16.9132-14.3262 15.0601-12.2521 12.2661-11.1322 8.46328-11.0491M1.94965-0.636127C2.62767-3.67836 4.30052-5.66991 7.81382-5.83561 7.10786-3.11143 5.28265 1.31352 1.94965-0.636127" fill="#19316D" transform="matrix(1 0 0 -1.00138 734.566 530.633)"/><path d="M0 0-74.7589 0C-75.2153 17.7836-76.5289 34.6683-79.3362 50.0737-77.1231 50.9175-74.3989 54.665-72.8226 53.9737-67.1114 49.2859-64.6088 41.3755-59.1738 36.411-49.9226 39.5224-55.5506 57.4996-46.1605 60.4733-50.1017 67.18-54.7761 73.1267-59.1738 79.3495-50.2813 84.1205-40.629 88.1029-32.4977 93.6624-14.064 70.0425-1.02339 41.0023 0 0" fill="#19316D" transform="matrix(1 0 0 -1.00138 791.79 373.694)"/><path d="M0 0C-4.24529 1.82521-10.1368 2.00488-14.9629 3.24983-10.0536 22.8174-7.68876 44.9574-7.13579 68.9366L67.6231 68.9366C67.5678 36.7843 56.2001 6.40253 41.6244-15.613 39.73-18.4756 36.0377-24.5461 35.1247-24.7258 34.5305-24.8229 27.9477-20.8398 26.6615-20.1764 18.6407-15.8892 10.1361-11.3259 1.29955-8.46328 1.68682-4.81222 0.95419-2.29564 0 0" fill="#19316D" transform="matrix(1 0 0 -1.00138 724.167 445.967)"/><path d="M0 0C4.56335 3.2911 8.44995 1.24432 10.4129-4.57732 6.98406-5.66991 7.66146-0.345997 3.26444-1.30019-4.95062-3.11143 5.80831-26.344 13.6628-22.7622 12.1829-19.2495 12.4045-14.064 7.16373-14.3129 8.26965-11.3119 11.7271-10.6205 14.9629-9.74887 13.4831-14.0913 17.0789-16.5672 18.2128-20.1624 8.75405-38.6793-12.3353-8.89244 0 0" fill="#19316D" transform="matrix(1 0 0 -1.00138 715.054 540.396)"/><path d="M0 0C0.428529 9.50064-4.23132 19.0425-9.73553 24.7125-7.92365 25.2787-6.52697 26.2748-4.53605 26.6621-0.0831663 22.693 4.39766 18.6965 9.09941 14.9629 7.75796 17.9773 7.31546 27.4779 1.30019 27.9756 0.95419 30.9214 4.96458 29.5247 5.84957 31.2261 8.86451 30.8249 6.3473 29.1926 6.49967 27.9756 7.45386 20.5084 14.1745 12.0178 14.2989 5.19948 10.5513 5.93274 7.78589 8.80928 5.19948 11.063 2.59974 13.3314 0.414562 16.3457-2.59974 18.2121-1.18909 14.424-0.276798 4.50876 5.84957 3.24983 5.29661 0.774526 1.96361 1.07862 0 0" fill="#19316D" transform="matrix(1 0 0 -1.00138 699.455 577.522)"/><path d="M0 0C-13.1517-13.165-28.9298-24.256-47.474-32.5256-52.6601-28.1838-58.1504-24.1176-64.3872-20.8125-53.6143-7.31546-46.1744 9.51397-39.6748 27.2976L-18.8629 27.2976-18.8629 29.2472C-7.59226 25.1264 3.3603 20.6875 12.3492 14.2849 9.9425 8.13125 4.34242 4.34179 0 0" fill="#19316D" transform="matrix(1 0 0 -1.00138 744.33 486.984)"/><path d="M0 0C-4.23132 0-9.62443-1.13449-12.3492-0.650094-17.4662 0.262196-21.1579 5.30995-23.4123 7.79922-4.09292 20.7986 14.6589 34.3502 33.1611 48.138 37.0611 34.4613 37.6972 17.5627 37.7112 0 27.7268-0.0279337 13.0273 0 0 0" fill="#19316D" transform="matrix(1 0 0 -1.00138 676.043 373.694)"/><path d="M0 0C-1.50715-0.22093-2.50261 0.110465-3.24983 0.650094-4.52209-1.99091-6.9974-3.40156-7.81382-6.49967-4.25926-5.29598-1.32812-3.44347 0 0M-11.0491-12.3626C-7.95159-13.0958-8.06205-10.5793-7.81382-8.46328-10.524-8.13125-10.9246-10.1088-11.0491-12.3626M3.2638-22.7755C-5.82227-22.0981-11.7271-16.1933-22.1121-18.8622-23.7437-16.7602-22.3063-13.386-21.4487-11.7131-19.7618-11.0351-17.4662-10.9246-14.949-11.063-14.4373-9.62507-13.5936-8.51851-13.6494-6.49967-14.0913-4.54939-17.9912-6.09844-18.2121-3.89993-19.8583-1.07862-17.8947 2.93177-16.2492 4.53605-13.2755 5.14488-13.1238 2.93177-10.4129 3.23587-5.13028 7.93762-2.69687 15.4607-1.93631 24.6985 0.456462 27.0354 3.87199 25.0718 6.49903 24.0484 7.45322 22.0156 7.95095 20.6049 7.79922 18.8489 7.43989 14.8385 3.92786 15.2391 1.30019 12.3632-1.56302 9.20987-1.32812 6.26477-3.24983 3.23587 9.03021 1.36939 6.36127 23.3297 14.2989 24.6985 18.2813 25.3898 20.4386 22.7069 22.0987 19.499 21.9737 15.9451 17.6865 16.5393 15.5984 14.9629 11.4643 11.7271 9.9425 5.87751 5.86291 2.58641 7.68876 0.982124 11.5607 1.36939 12.3486-1.29955 13.372-14.0773-3.4987-1.86648-3.91389-12.3626 0.871024-13.2063 7.30149-17.1335 3.2638-22.7755M-9.74887 0-11.0491 0C-11.091-0.843725-11.8928-0.91229-11.7131-1.94965L-10.4129-1.94965C-10.3577-1.13385-9.5692-1.06466-9.74887 0" fill="#19316D" transform="matrix(1 0 0 -1.00138 691.656 186.789)"/><path d="M0 0C0.193631-1.52112 3.09747-0.386628 2.59974-2.59974-0.0279337-3.44347-2.54514-4.35576-5.85021-4.54939-3.8174 3.333-8.43598 14.6868-12.3492 20.8125-10.0396 21.7534-7.71669 22.6657-4.55002 22.7622-6.9701 15.8892-1.01006 7.63352 0 0" fill="#19316D" transform="matrix(1 0 0 -1.00138 692.956 575.57)"/><path d="M0 0C10.6618 5.37978 20.7706 11.3259 27.3122 20.8125 33.5344 18.3505 39.0805 15.2251 42.9246 10.3996 30.0224 5.53151 16.2073 1.56302 0 0" fill="#19316D" transform="matrix(1 0 0 -1.00138 650.031 531.27)"/><path d="M0 0C5.25471 2.17121 7.02469-10.0123 0.664061-9.09941-3.526-8.50455-3.8447-1.56238 0 0" fill="#19316D" transform="matrix(1 0 0 -1.00138 674.743 472.029)"/><path d="M0 0C-2.21248 2.86257-3.89993 6.07114-6.513 8.46328-7.17706 5.19948-5.28201-1.13385-4.56272-5.19948-4.45289-7.24626-1.05069-6.02924-1.29955-8.43535-4.28656-7.81319-5.86291-10.731-7.81319-9.09941-8.13125-7.03866-5.80767-7.63289-6.513-5.19948-8.24172 1.94965-6.859 12.2108-12.3765 15.613-3.77486 21.2963-1.47922 6.37524 4.53605 3.24983 4.21799 7.46782 3.15334 10.9938 2.60038 14.9629 2.73814 17.5075-0.995456 16.152-0.663426 18.8483 1.07862 19.3054 3.40156 19.153 4.53605 20.1624 5.29661 20.2869 5.71118 20.038 5.83561 19.5123 2.12931 12.7365 7.67542 1.92235 7.79986-7.16309 3.98246-6.51363 1.96425-2.58577 0 0" fill="#19316D" transform="matrix(1 0 0 -1.00138 674.107 575.57)"/><path d="M0 0C-21.4626 3.89993-42.9113 7.81382-55.2738 20.8125L-55.2738 50.0604C-54.5406 52.0513-51.3879 48.8161-49.4103 47.4607-36.0656 38.4304-20.3561 26.6342-7.14976 16.9126-2.32294 21.1858 0.760559 27.2017 4.54939 32.525-8.82261 43.6299-24.27 52.6601-37.7112 63.7371-38.8177 63.5016-38.9282 64.2348-39.0107 65.0367L7.14976 65.0367C7.60559 40.5045 4.32782 19.7339 0 0" fill="#19316D" transform="matrix(1 0 0 -1.00138 706.605 442.062)"/><path d="M0 0C16.4422 0.387263 32.4152-5.29661 46.1884-9.73553 43.1462-15.3775 36.6465-17.5627 31.2115-20.7986 21.6975-12.9714 13.7878-3.55393 0 0" fill="#19316D" transform="matrix(1 0 0 -1.00138 647.431 219.359)"/><path d="M0 0C-2.00488 7.31546-0.926257 17.7284-4.56335 23.4123-1.47922 23.1494 0.857692 23.6338 3.2365 24.0617 1.03736 16.3457 2.73814 3.29173 6.49967-2.61371 3.30507-2.43404 1.56302-3.7336-1.96361-3.23587-2.26771-1.21702-0.206963-1.54842 0 0" fill="#19316D" transform="matrix(1 0 0 -1.00138 655.894 583.38)"/><path d="M0 0C0.442495 10.8142-1.42398 23.9652 2.60038 31.1982 20.9509 32.5942 37.3652 35.9132 53.9743 39.0113 50.5861 34.5724 45.4418 31.8063 40.9883 28.5978 27.9344 19.2495 14.2164 9.01624 0 0" fill="#19316D" transform="matrix(1 0 0 -1.00138 651.331 342.426)"/><path d="M0 0C-7.42592 1.49382-19.0013-0.415197-27.9756 0-29.8707 0.0825314-34.3921-1.45255-35.1393 1.94965-31.9308 4.46686-28.0728 3.01494-24.7258 3.24983-14.2576 4.01039-3.0835 7.26023 5.19948 10.4129 12.2381 3.55393 16.9958-5.57278 21.4487-14.9629 25.8736-24.27 29.6764-34.6968 32.4971-45.5243 18.5029-49.2998 3.23587-51.817-13.0127-53.3242-7.19103-46.1465 3.65106-43.9759 12.9993-40.3115 15.1426-21.6835 14.9623-3.04224 0 0" fill="#19316D" transform="matrix(1 0 0 -1.00138 671.507 254.519)"/><path d="M0 0C5.61468-1.82521 5.00648-16.1101 0.650094-18.8349-5.80767-18.2121-5.60008-1.42398 0 0" fill="#19316D" transform="matrix(1 0 0 -1.00138 647.431 472.029)"/><path d="M0 0C-7.70272-8.67088-19.6228-17.5494-35.1254-18.8349-36.1481-10.5101-36.2313 2.11598-35.1254 10.4129-21.0747 9.72157-8.10395 7.95095 1.96361 3.27713 4.21799 1.93631 0.414562 0.469794 0 0" fill="#19316D" transform="matrix(1 0 0 -1.00138 672.143 512.409)"/><path d="M0 0C-10.7862-4.38369-22.8866-7.46782-38.3746-7.16309-37.946 2.17121-39.2043 13.179-37.7245 21.4487-19.706 20.1624-7.31482 9.7768 0 0" fill="#19316D" transform="matrix(1 0 0 -1.00138 674.743 241.488)"/><path d="M0 0C1.71475-4.78428 2.86257-10.1501 4.56335-14.9623 8.50455-10.2333 4.03769 2.93177 14.9623 0.650094 15.7927-1.90838 13.0685-0.926257 13.0127-2.59974 13.8012-10.4821 12.3353-20.6322 15.613-26.012 12.6394-25.5416 9.01624-26.7307 7.81382-26.012 11.2014-21.9603 8.25568-14.9071 9.11274-7.79922 7.24626-7.97888 7.49512-10.9799 7.16309-12.3765 6.30604-15.9165 5.96004-23.5507 2.59974-26.012 1.57635-19.678-0.304097-14.1884-1.94965-8.46328-2.55847-12.7638-4.42495-23.9373 0-25.3479 0.262831-28.0029-4.05166-26.0672-5.84957-26.6481-5.11695-21.6696-1.27225-5.00585-6.49967 0Z" fill="#19316D" transform="matrix(1 0 0 -1.00138 634.418 561.237)"/><path d="M0 0C5.55881 2.51721 6.52697-7.97888 2.59974-9.09941-2.50324-10.5374-4.41162-1.99155 0 0" fill="#19316D" transform="matrix(1 0 0 -1.00138 615.57 472.029)"/><path d="M0 0C-1.20305-2.03281-1.38272-5.10298-1.29955-8.46328-1.67348-10.731 1.78395-10.5793 0-12.3353-2.32358-11.4224-6.36127-12.2108-8.44931-11.0357-3.94119-6.00194-4.70175 4.27259-3.89993 13.0127-4.70175 13.2895-5.22741 13.8431-5.19948 14.9623-0.746592 15.2804 1.88045 13.8012 6.51363 14.3129 7.71669 12.9295 6.94216 9.5419 7.16309 7.16309 4.67382 8.36678 6.33397 13.7047 1.31352 12.3632 0.248864 9.72157-0.0272989 6.33397 0 2.59974 2.69687 2.29564 4.77095 2.59974 4.56335 5.21345 6.4857 2.82067 4.20402-0.91229 4.56335-3.89993 2.32358-3.30507 4.19006 1.38272 0 0" fill="#19316D" transform="matrix(1 0 0 -1.00138 611.006 574.268)"/><path d="M0 0C-16.4288 1.34145-32.0971 3.44347-45.511 7.79922-39.6056 29.4275-30.9074 48.2485-18.8489 63.7371-10.8694 61.1507 0.511695 57.3346 11.063 56.5734 14.8525 56.2972 18.7657 57.8596 22.1121 55.2738 21.4759 51.9129 16.8294 53.4067 14.9629 53.3242 7.46782 52.9782-4.74365 54.7342-12.3492 53.3242-18.4477 52.1764-25.2927 46.036-26.6621 39.6608-27.4639 35.8859-26.6621 30.3125-26.6621 25.3619-26.6621 21.2963-27.589 16.4149-25.3486 13.0127-16.5945 8.97498-5.35185 7.43989 0 0" fill="#19316D" transform="matrix(1 0 0 -1.00138 611.656 307.917)"/><path d="M0 0C13.0819 0.442495 9.41747-31.0598-5.84957-27.3122-15.1566-21.1998-9.32097-0.318063 0 0M-1.30019-3.24983C-3.71963-7.49512-9.5419-20.5637-3.24983-25.3619 3.47076-22.8726 3.87199-10.938 2.59974-2.59974 1.70078-2.61371 1.17576-2.29564 0.650094-1.94965 0.483761-2.86257-0.774526-2.68291-1.30019-3.24983" fill="#19316D" transform="matrix(1 0 0 -1.00138 594.107 556.03)"/><path d="M0 0C3.09747 0.497728 4.28656-0.91229 5.19948-2.61371 3.44347-8.65691-1.89441-11.1043-5.19948-15.6124-8.17315-15.3362-10.6066-14.5065-11.0491-11.7131-7.42592-7.74399-3.52663-4.06563 0 0" fill="#19316D" transform="matrix(1 0 0 -1.00138 598.007 154.883)"/><path d="M0 0C-6.2089 2.66894-12.4597 5.30995-15.613 11.063-1.50779 15.806 12.9574 20.1897 30.5614 21.4487 18.2261 16.4422 8.36615 8.94704 0 0" fill="#19316D" transform="matrix(1 0 0 -1.00138 592.158 240.186)"/><path d="M0 0C-15.5991-0.650094-26.7446 3.16667-38.3612 6.51363-30.23 18.5169-18.4756 26.9389 0 28.6117Z" fill="#19316D" transform="matrix(1 0 0 -1.00138 633.768 248.661)"/><path d="M0 0C-0.62216-3.4987-2.88987-5.35185-6.49967-5.86354-8.64295-5.11695-9.15464-0.221565-7.79922 1.94965-4.72969 2.93177-0.995456 2.82131 0 0" fill="#19316D" transform="matrix(1 0 0 -1.00138 597.357 151.629)"/><path d="M0 0C10.2612 4.25926 24.9473 7.53702 38.3612 6.49967L38.3612-21.4759C21.3515-21.5724 7.02469-9.90123 0 0" fill="#19316D" transform="matrix(1 0 0 -1.00138 595.407 509.127)"/><path d="M0 0C1.42462 8.42202 0 16.8155-1.94965 24.0757-1.20305 27.768 3.01494 25.141 4.55002 24.0757 4.01039 16.6085 6.29207 8.53185 4.55002 1.29955 3.2219-4.20402 1.00942-11.063-3.24983-12.3632-3.99643-8.60168-0.815791-4.78492 0 0" fill="#19316D" transform="matrix(1 0 0 -1.00138 594.107 197.216)"/><path d="M0 0C-15.0734-0.110465-30.23 5.33788-42.9246 9.76347-39.0805 14.589-33.9636 18.1436-27.3122 20.1764-20.3561 11.284-11.5887 4.23196 0 0" fill="#19316D" transform="matrix(1 0 0 -1.00138 620.119 530.633)"/><path d="M0 0C19.3054-13.2342 37.7391-27.2982 57.2375-40.3388 55.5919-44.3213 50.9181-45.2755 48.1241-48.138 31.1842-48.0968 10.8973-48.1793-3.89993-48.138-4.27322-30.4236-2.40611-14.935 0 0" fill="#19316D" transform="matrix(1 0 0 -1.00138 560.282 325.49)"/><path d="M0 0C1.99155-1.05132 5.68388-0.40123 5.84957-3.26444-2.22644-6.43047-8.06205-17.397-6.49967-26.026-9.22384-24.8369-12.847-24.5741-14.9623-22.7761-7.41196-20.2735-8.86388-3.52663-9.74887 3.2492-7.14913 2.59974-4.70175 1.78395-2.59974 0.649459-2.29564-0.747227-3.526-0.608828-4.55002-0.664061L-4.55002-10.4129C-2.42008-7.44053 1.63158-4.81285 0 0" fill="#19316D" transform="matrix(1 0 0 -1.00138 571.995 550.158)"/><path d="M0 0C-11.4224 12.1969-18.9454 28.3076-24.0617 46.8099L39.6614 46.8099C41.3203 45.6488 39.2323 40.7394 40.961 39.6468 44.8469 39.0386 41.7907 45.3307 43.5607 46.8099L107.298 46.8099C103.301 29.9811 94.3677 12.501 83.8856 0 71.8411 3.33237 60.5152 7.38466 44.8749 7.13516 42.1367 6.36127 43.7131 9.88727 42.2605 10.399 38.9555 11.5468 41.3755 6.9555 39.0113 7.13516 23.3983 7.38466 11.6718 3.69169 0 0M-3.24983 28.5978-3.24983 11.0211C-0.483761 11.2979 3.44347 10.4129 5.19948 11.6991L5.19948 38.9974C3.38823 39.4672 0.456462 40.5458-1.94965 39.6468-1.94965 39.5224-2.57181 37.7384-2.59974 37.6972-5.58674 33.8804-10.4269 33.6176-8.46328 27.2976-5.76641 26.3853-4.72969 30.4509-3.24983 28.5978M30.562 38.3466C22.5965 43.1455 9.51397 38.3612 12.3492 26.6481 14.1053 19.4019 24.1036 19.4844 27.3122 22.1121 27.2151 18.7378 27.0354 15.4467 23.4123 15.6124 20.2729 14.6309 22.0568 18.5721 19.5123 18.2121 17.4383 17.6592 14.7141 17.7976 12.9993 16.9126 21.0754 2.83464 36.2313 11.8096 35.7615 26.012 35.6371 29.7183 34.2956 36.1069 30.562 38.3466M46.1744 12.3353C50.3093 9.03021 58.6621 9.2232 62.4369 12.9847 66.6549 17.2307 66.766 32.6221 62.4369 37.0471 59.7407 39.8265 54.5825 40.2557 50.0744 38.9974 48.1793 38.485 45.511 37.6832 44.2108 35.7475 40.6156 30.3817 41.4447 16.1241 46.1744 12.3353M86.4853 22.1121C85.8079 19.5263 86.2365 15.8333 83.2495 15.6124 79.0321 16.8021 77.9535 19.1663 72.1864 17.5348 76.0584 7.88239 83.692 8.67024 89.0857 11.6991 96.6634 15.9584 95.8196 33.41 90.3853 37.6972 82.3226 44.1137 70.9002 37.7524 70.8869 29.898 70.845 20.231 81.0503 18.4889 86.4853 22.1121" fill="#19316D" transform="matrix(1 0 0 -1.00138 593.457 506.523)"/><path d="M0 0C7.85509 7.32943 20.2316 10.1222 29.9119 15.613L30.562 15.613C32.5117 16.2625 31.7098 14.1745 31.8616 13.0127L52.6741 13.0127C59.4087-4.30052 66.2677-21.5178 77.3866-34.4613 75.3391-37.1722 72.5737-37.6832 69.5727-39.6748 66.6549-41.5971 63.3638-45.8837 60.4733-46.1884 55.7582-46.6169 48.0828-40.1039 42.9106-37.075 26.4266-27.3668 9.15464-13.4418 0 0" fill="#19316D" transform="matrix(1 0 0 -1.00138 512.821 472.679)"/><path d="M0 0C-2.01885-7.50909-6.56887-12.487-7.14913-21.4626-3.95453-20.6189-4.05166-15.6956-0.649459-14.935 4.59129-13.7872 5.90481-17.1754 6.51363-22.0987 3.6371-25.0857 0.580894-27.8931-3.89993-29.2479-6.04321-28.8193-6.859-27.0214-7.79922-25.3479-9.95646-29.0542-10.4542-34.3921-12.3492-38.3612-11.8509-41.1134-9.19591-42.9659-10.399-45.5243-20.4665-46.382-14.4233-38.4857-12.3492-27.9477-10.9519-20.8817-9.34827-12.8743-7.79922-5.84957-10.8554-5.76641-10.4682-14.7966-15.5984-14.2849-17.0923-14.1605-18.9867-12.7498-19.4984-9.73553-14.2989-6.7206-9.90123-2.86257-7.14913 2.59974-3.44347 3.55393-1.46589 2.71084 0 0M0-18.8622C-2.43341-19.0146-2.53054-21.5178-3.24983-23.3983-0.815791-23.2326 0.553595-21.9876 0-18.8622" fill="#19316D" transform="matrix(1 0 0 -1.00138 584.994 164.009)"/><path d="M0 0 46.1744 0C39.7579-6.22287 32.0831-10.9938 24.7118-16.2765 17.4522-21.4899 10.0809-26.9389 2.59974-31.8755 4.13482-34.7381 5.53151-37.0338 7.81319-40.3249 8.71214-41.6111 12.1143-47.8619 13.6628-48.1247 15.3915-48.4428 24.2973-40.2976 26.012-39.0253 34.6962-32.6774 42.4961-27.3668 50.7238-21.4759 55.1773-18.282 59.215-15.1566 63.087-14.3129 62.202-19.4019 63.1289-24.8508 63.087-29.9113 63.0458-34.7794 63.5987-41.0854 62.4369-44.2242 60.1273-50.5029 44.8749-55.5779 37.7251-57.8736 27.0354-61.317 16.6917-63.9308 7.16309-65.0367 2.987-45.151-0.428529-24.5182 0 0" fill="#19316D" transform="matrix(1 0 0 -1.00138 556.382 376.935)"/><path d="M0 0C15.5299-3.96913 32.6221-6.40253 50.7238-7.81319 55.4814-14.5344 51.8996-29.6078 53.9743-39.0113 34.8765-28.1972 19.3466-13.8151 0.650094-2.59974 0.138399-2.03281-0.0552326-1.13385 0 0" fill="#19316D" transform="matrix(1 0 0 -1.00138 565.495 303.361)"/><path d="M0 0C-0.566927-2.65561-2.04678-4.43892-2.61371-7.12246-4.16276-5.65594-2.18454-0.636127-5.21345-0.62216-8.00682-7.48116-15.1286-15.8206-13.0133-23.371-15.3362-24.1449-18.9175-21.2411-21.4626-20.1351-15.0321-15.7095-14.0088-5.91877-9.76283 0.677393-9.8879 1.20305-10.4129 1.31352-10.4129 1.97695-14.4513 2.76544-13.8012-1.14846-16.9126-1.27225-15.7787 1.05069-14.617 3.34633-13.6628 5.87751-9.05814 3.98246-5.84957 0.691359 0 0" fill="#19316D" transform="matrix(1 0 0 -1.00138 561.596 544.979)"/><path d="M0 0-2.59974 0C-6.1397-6.01591-9.4308-12.2521-13.0127-18.2121-13.4831-20.2037-11.8788-20.1345-12.3632-22.1121-15.488-21.3515-17.2446-19.1943-20.1624-18.2121-13.6488-13.4552-11.0078-4.81222-6.49967 1.96425-7.05263 2.69687-7.35673 3.69233-7.14913 5.21345-4.72969 3.51266-0.898958 3.20857 0 0" fill="#19316D" transform="matrix(1 0 0 -1.00138 546.633 539.745)"/><path d="M0 0C0.179665-3.2365-1.82521-4.24529-2.61371-6.51363-5.51754-5.76704-0.663426-1.18972-3.91389 0.649459-6.23684 0.373296-7.48116-0.995456-8.46328-2.60038-9.58317-5.60071-6.36127-8.32488-6.51363-11.7271-6.81773-18.7518-15.5019-26.0812-21.4626-18.2121-21.6975-14.742-19.6647-13.511-18.8622-11.0637-17.1062-13.2349-20.6875-18.4756-16.9126-19.5123-13.5523-19.6374-13.1231-16.8021-11.7131-14.9629-12.2381-11.3951-14.1605-8.71278-13.6628-5.19948-12.7365 1.25765-5.04775 5.32391 0 0" fill="#19316D" transform="matrix(1 0 0 -1.00138 536.234 531.921)"/><path d="M0 0C14.7001 21.0335 35.8853 35.6231 59.8232 47.4607 66.3229 44.0032 70.831 38.5269 78.036 35.7615 68.176 21.5451 59.3534 6.30604 53.9737-12.3632 47.1286-9.45874 42.5234-4.31449 36.411-0.650094 32.4977-4.12086 30.7271-9.73553 26.6621-13.0133 16.9958-9.45874 8.18648-5.03378 0 0" fill="#19316D" transform="matrix(1 0 0 -1.00138 512.172 278.601)"/><path d="M0 0C4.86745-2.28168 9.09941 4.56335 7.79986 8.46328 4.48082 8.82261 2.00551 3.0835 0 0M2.59974 14.3262C11.2979 12.155 17.6452-0.884991 3.24983-3.23587 1.93631-7.57829 0.0272989-11.3119 0-16.8986-6.7206-15.0321-2.29564-6.3473-0.650094-1.93631-4.16276-3.53996-7.38466-7.01136-6.51363-11.0491-9.14067-9.5692-12.501-8.79531-13.0133-5.21345-11.2427-5.14488-11.6991-6.27874-10.4129-5.21345-5.48961-0.359329-1.60428 5.50421 2.59974 11.063Z" fill="#19316D" transform="matrix(1 0 0 -1.00138 510.872 530.633)"/><path d="M0 0 74.1361 0C74.6484-23.9932 77.151-45.9941 81.9493-65.6868 73.818-67.1114 64.3593-67.1946 65.0373-77.3999 52.8258-81.0097 42.3164-86.3057 32.5256-92.3622 21.8219-82.2534 15.1705-68.1208 9.76347-53.3236 4.35639-38.5688-0.497728-21.8492 0-1.96361-1.14782-1.49382-0.0825314-0.774526 0 0" fill="#19316D" transform="matrix(1 0 0 -1.00138 478.996 376.935)"/><path d="M0 0C-0.304097-2.75147-3.08414-3.0143-3.91389-5.21345-6.11241-3.5952-2.12995-2.72417-3.24983 0-3.62313 0.912925-4.27322 1.56302-5.21345 1.92235-8.26965 0.885626-9.72157-1.79728-11.7131-3.91326-11.3811-7.55036-8.76801-6.00131-6.51363-5.21345-8.31155-7.73002-9.87393-10.5101-13.0133-11.7125-12.2108-9.7076-10.9386-8.14458-13.0133-6.513-16.5812-7.93762-18.2953-11.1875-20.8125-13.6767-20.0107-15.0175-18.9181-16.1241-17.5627-16.9126-15.267-16.8294-14.6589-15.0455-12.3632-14.9763-13.6907-16.8986-15.2531-18.5721-17.5627-19.5117-21.6283-17.0923-24.8781-13.8285-27.3122-9.77617-25.2375-9.37621-25.3067-10.9932-24.0624-9.77617-20.923-6.31937-14.5205-1.54842-11.063 2.60038-9.97107 3.85866-8.74008 5.89147-9.76347 7.79986-5.13092 6.58283-3.4022 2.43404 0 0" fill="#19316D" transform="matrix(1 0 0 -1.00138 512.172 514.334)"/><path d="M0 0-74.7862 0C-73.2232 39.8544-61.4275 69.4623-42.9106 92.3622-33.6868 88.5594-26.6342 82.6406-16.2485 79.9996-16.0828 76.6527-19.1524 74.4814-20.8125 72.1864-25.6387 65.4931-30.091 58.0113-35.7615 51.3739-29.6904 45.7592-22.5406 41.1819-15.5984 36.411-10.2745 41.7209-6.98343 49.0503-1.94965 54.6237 0.262831 52.9363 2.97367 51.7332 4.55002 49.4243 1.67348 34.3229 0.511695 17.4795 0 0" fill="#19316D" transform="matrix(1 0 0 -1.00138 553.132 373.694)"/><path d="M0 0C-31.5714-9.52794-57.1962-26.0672-75.4363-46.1744-99.9411-73.1267-120.352-113.396-117.711-166.472-116.536-190.16-109.483-212.383-100.149-230.195-90.7033-248.214-79.3222-263.55-65.0367-276.397-36.7982-301.717 4.77095-321.824 53.9743-318.63 113.991-314.771 156.501-283.518 182.098-244.508 198.084-220.099 209.077-188.612 207.446-147.623 205.51-99.2358 181.434-61.2478 155.422-37.0611 128.151-11.741 87.0662 8.89181 35.7615 5.84957 23.8548 5.15821 11.7823 3.55393 0 0M-122.261-169.085C-125.607-115.305-105.998-72.7813-80.6357-44.8749-67.7615-30.6858-52.4665-18.5861-33.1751-8.43598-14.41 1.41065 6.98343 8.51851 32.511 10.399 32.4425 10.399 32.7466 11.0351 33.1611 11.063 90.0945 14.7001 128.829-7.55099 157.372-32.5117 186.301-57.8183 208.303-95.2946 212.009-145.023 215.895-197.517 194.793-241.175 169.721-268.569 144.317-296.324 106.925-319.653 57.8736-323.843 32.193-326.028 6.15367-320.635-14.9629-312.78-35.651-305.105-53.0334-293.613-66.987-280.919-94.7689-255.653-119.191-218.398-122.261-169.085" fill="#19316D" transform="matrix(1 0 0 -1.00138 590.208 218.708)"/><path d="M0 0C-71.0386 3.4568-122.053 32.1104-160.621 68.9366-199.094 105.638-226.447 157.759-232.158 226.309L-232.158 252.97C-230.263 285.427-220.97 317.606-208.746 344.006-196.687 370.073-179.512 392.088-161.922 409.692-124.196 447.417-72.8226 473.927-6.49967 479.265L20.8125 479.265C72.5597 475.725 114.475 458.01 147.623 433.768 201.541 394.314 241.617 335.349 247.121 247.107L247.121 232.808C243.056 161.327 215.107 108.473 176.899 70.2362 138.758 32.0825 86.0568 4.23132 14.9629 0ZM-57.2235 461.066C-101.919 448.579-137.873 423.369-163.871 394.729-198.485 356.631-227.443 298.315-222.409 224.345-219.948 188.306-211 159.764-197.696 133.959-184.849 109.054-167.605 86.8999-147.623 68.9366-108.141 33.4659-51.9548 6.61013 22.1121 9.73553 56.1722 11.1875 87.3982 21.5724 112.497 34.4607 138.274 47.7089 159.599 65.0227 177.535 84.549 214.153 124.39 241.009 178.751 237.371 253.62 234.039 321.768 200.781 375.258 163.222 409.692 124.445 445.232 66.8346 473.885-7.14976 469.516-23.6059 468.547-41.4447 465.491-57.2235 461.066" fill="#19316D" transform="matrix(1 0 0 -1.00138 625.319 613.332)"/><path d="M0 0C-0.0971331 3.7336 2.90384 7.60559 5.19948 11.0491 7.45386 14.4094 10.1088 17.8395 12.3632 20.8119 12.9714 23.2599 12.3905 23.8687 13.0127 25.3479 15.6403 23.8687 17.7976 21.9184 18.8622 18.8349 12.4457 17.7011 11.6572 10.8834 8.46328 6.51363 13.2615 9.4727 21.6696 10.9246 21.462 16.9126 22.9006 15.2943 24.6845 14.0634 25.3619 11.7125 14.7001 10.0123 9.22384 3.13873 0 0" fill="#19316D" transform="matrix(1 0 0 -1.00138 476.397 516.951)"/><path d="M0 0C5.51754 4.02436 10.9246 8.15918 16.2625 12.3772 16.0555 13.8704 16.3596 14.8658 16.9126 15.613 19.2082 13.7878 21.1858 11.6579 22.1121 8.47725 20.038 8.07665 20.0932 9.69427 18.8622 8.47725 13.179 3.27777 4.88142 0.760559 1.94965-7.13516-0.179665-5.14425-2.58577-3.4568-3.24983 0-1.17576 0.40123-1.24432-1.21702 0 0" fill="#19316D" transform="matrix(1 0 0 -1.00138 467.297 499.378)"/><path d="M0 0C-9.80473 0.373931-14.935-9.26511-24.0484-11.7271-23.7716-4.92268-16.8986 0.539629-14.2989 7.13579-17.7011 5.32455-26.6481 3.4714-27.3122-3.2638-29.7869-2.71084-30.437-0.331395-31.2115 1.93631-28.7781 1.86711-29.3583 1.21702-27.3122 1.93631-21.9324 6.52697-13.0819 7.66082-10.399 14.935-17.8395 18.9314-24.4496 7.74399-32.5117 8.43598-38.2089 8.94768-39.0113 12.1283-39.0113 14.935-39.0113 23.6618-19.3879 25.5282-18.8483 31.8622-16.0136 30.7969-14.921 27.9756-14.2989 24.6985-16.3457 24.3804-16.8434 26.1225-18.1988 24.6985-23.9792 21.1725-31.8343 19.706-35.1114 13.6355-29.9811 6.2508-19.8304 16.4422-13.6494 18.1988L-13.6494 21.4487C-9.90123 19.5542-8.98894 14.8525-6.49967 11.6852-8.47725 5.65594-12.4597 1.60428-14.949-3.89993-11.4363-4.39766-8.06205 0.898958-3.89993 1.93631-2.9597 3.88596-4.42495 4.13546-3.24983 5.83561-1.85315 4.35639 0.95419 1.74268 0 0" fill="#19316D" transform="matrix(1 0 0 -1.00138 482.246 481.778)"/><path d="M0 0C1.29955 1.61762 0.304097 5.11695-2.59974 4.53605-3.34633 3.7755-3.333 2.25438-3.24983 0.650094-1.68745 0.91229-1.83918-0.539629 0 0M4.55002-13.6628C6.07114-11.948 4.66049-9.23781 4.55002-7.16309 2.01885-7.56432-0.995456-4.38369-1.94965-7.16309-0.345362-9.8879 0.884991-12.9993 4.55002-13.6628M37.0611-14.9629C29.0822-17.1754 20.6049-9.58317 11.0491-9.11274 11.1735-16.4561 6.49967-22.2505-1.30019-19.5263 0.40123-13.8843-6.56887-9.23781-8.44931-3.24983-12.3632-1.75665-18.254-2.21248-21.4626 0-21.8359 2.10201-21.0195 3.01494-20.8125 4.53605-16.6777 7.71669-11.2427 4.09356-7.14976 3.23587-5.44898 8.21442-2.10201 14.4233 3.89993 13.0133 5.61468 8.20045 7.67479 3.7755 9.09941-1.29955 13.0819-2.06075 16.1793-5.42105 20.8125-7.16309 26.3993-9.23781 36.1481-7.55036 37.0611-14.9629" fill="#19316D" transform="matrix(1 0 0 -1.00138 441.935 291.632)"/><path d="M0 0C-4.53605 2.97304-6.15367 5.69721-9.74887 9.11274-13.9948 13.1231-20.5497 16.0968-24.0617 21.4626-24.1449 22.6238-23.2599 22.8314-23.4123 24.0757L-22.1121 24.0757C-19.706 24.1176-18.5302 22.14-16.9126 20.8125-14.1605 18.5442-11.4363 15.834-8.44931 13.6628-4.09292 10.4961 0.940223 7.32879 5.84957 3.89993 8.72611 1.90838 13.6494 0.387263 13.6628-3.89993 9.20987-6.09844 4.39766-2.86257 0 0" fill="#19316D" transform="matrix(1 0 0 -1.00138 495.909 252.566)"/><path d="M0 0C0.760559-0.193631 2.44737-2.61371 3.24983-0.650094 2.47531-0.470429 0.788493 1.96361 0 0M5.84957-3.2638C5.66991-4.93728 5.62801-6.49967 7.79922-5.86354 7.52306-4.61859 7.56432-3.0562 5.84957-3.2638M14.949 5.21345C12.7778 7.12183 12.3213 10.5513 9.09941 11.0491 6.6514 9.37621 5.53151 6.37524 3.89993 3.91326 8.14522 3.34633 6.45777 8.72611 10.399 8.44931 12.9574 6.5549 10.0536 3.2638 12.3492 1.31352 28.1 6.01527 27.0487-17.6179 16.2485-15.613 14.4513-13.0273 19.7472-6.73456 16.8986-5.21345 14.6862-5.54548 15.6264-8.40805 14.949-9.7495 14.0361-11.5468 11.9067-12.9022 11.0491-14.3129 7.92365-13.3314 6.1397-10.9938 5.19948-7.79986-0.0971331-8.75405 0.981489-3.333-3.24983-3.2638-2.51657 0.29013-4.32846 1.31352-5.84957 2.61371-5.51754 4.63255-4.71572 6.23684-3.89993 7.81319-1.42462 8.26965-0.774526 8.22775 1.29955 7.16309 1.46589 9.09941 0.940223 13.4552 4.55002 13.6488 1.82521 17.0091-2.9178 18.3366-6.49967 20.7986-10.3856 18.0325-9.01624 9.29304-8.46328 3.91326-15.82 4.12086-12.9714 14.5617-13.6628 21.4487-12.6673 25.141-5.47628 32.511 0.649459 28.6117 2.97304 27.1179 5.44834 21.4067 9.74887 16.8986 14.0081 12.4597 21.2544 8.65691 27.9616 5.21345 31.626 3.30507 36.3697 2.42008 37.0611-0.650094 37.8356-4.02436 34.4334-5.96067 33.1611-7.14976 28.5425-7.32943 27.2151-2.50324 24.0617 0 21.4067 2.08805 17.4516 2.97304 14.949 5.21345" fill="#19316D" transform="matrix(1 0 0 -1.00138 490.709 231.074)"/><path d="M0 0C-3.08414 0.470429-4.46686-0.746592-7.14976-0.649459-7.30149-1.88045-6.4165-2.08805-6.49967-3.2638-3.4022-3.09747-1.81188-1.43859 0 0M-18.8622 1.30019C-12.0591-0.649459 1.83918 3.01494 9.76283 1.94965 3.92723-5.24138-7.42592-6.90026-12.3492-14.9623-14.4233-13.3587-15.4194-10.6758-15.5991-7.16309-12.5149-8.76738-9.7495-6.67933-8.44995-4.56335-7.82715 0.0412657-15.9724-0.469794-16.2492-3.91326-18.5169-3.58186-17.95-0.40123-18.8622 1.30019" fill="#19316D" transform="matrix(1 0 0 -1.00138 449.085 434.889)"/><path d="M0 0C2.40611-0.621525 1.99155-4.07959 2.59974-6.49903-5.46231-3.44347-16.5945-10.2193-24.0624-9.73553-22.8593-3.53996-12.847-0.621525-9.09941 5.19948-13.2203 4.32846-23.7303 4.23196-25.3619-1.29955-26.883-0.013332-26.4685 3.2365-27.3122 5.19948-25.7911 6.7898-25.5695 4.19069-24.0624 3.89993-19.2082 6.33397-3.62313 5.51754-2.59974 11.7131-0.511695 10.9938-0.760559 7.91032 0 5.86354-4.55002 1.97758-9.55587-1.49382-13.6494-5.83561-10.6618-4.92268-0.179665-5.87687 0 0" fill="#19316D" transform="matrix(1 0 0 -1.00138 452.984 419.282)"/><path d="M0 0C-2.04678-0.331395-1.46589 1.99155-3.89993 1.30019-11.2427-0.691359-21.2823 0.0279337-26.012-4.56272-26.8418-2.15661-27.0627 0.871659-27.3122 3.89993-25.3067 4.37036-26.0539 2.10265-24.0624 2.60038-16.9266 4.06563-5.76641 3.38823-2.59974 8.43598 0.331395 7.68876-0.650094 3.0289 0 0" fill="#19316D" transform="matrix(1 0 0 -1.00138 451.034 405.586)"/><path d="M0 0C-0.497728-3.53996 1.03736-5.06108 0.650094-8.47725-5.43501-5.28201-20.052-7.31482-26.012-10.4123-25.998-7.57829-25.7911-4.57732-26.6621-2.62767-24.8915-0.84309-25.0438-4.30052-22.7622-3.91326-19.3879-3.81676-16.2904-3.44347-13.6494-2.62767-13.193-0.206963-14.7693 0.179665-14.2989 2.60038-19.153 2.22708-24.1728 2.04741-26.6621-0.677393-26.1644 2.87654-27.4639 4.60525-27.3122 7.79986-20.024 5.35248-6.61013 6.67933-0.650094 9.73553-0.898958 6.67933-0.442495 4.30052 0 1.93631-3.1527 3.49933-7.73066 3.48473-11.6991 2.60038-11.8509 0.484396-10.5513-0.165698-11.0491-2.62767-5.90481-3.19397-2.44737-2.12931 0 0" fill="#19316D" transform="matrix(1 0 0 -1.00138 448.435 387.349)"/><path d="M0 0C-8.62898 19.4431 35.1527 18.7384 26.012-0.649459 22.9971 0.0412657 20.3834-1.85315 18.8622-0.649459 21.2823 1.96425 24.27 0.318063 24.7118 3.89993 25.68 11.755 3.88596 11.5335 1.29955 5.19948 1.32749 1.12052 5.21345 0.885626 7.79922-0.649459 5.87687-2.30961 1.97758-0.442495 0 0" fill="#19316D" transform="matrix(1 0 0 -1.00138 421.123 374.345)"/></g></g></svg>