<svg width="225" height="221" xmlns="http://www.w3.org/2000/svg" xmlns:xlink="http://www.w3.org/1999/xlink" xml:space="preserve" overflow="hidden"><defs><clipPath id="clip0"><rect x="138" y="198" width="225" height="221"/></clipPath></defs><g clip-path="url(#clip0)" transform="translate(-138 -198)"><path d="M-2.00467-2.00467C14.0327-2.00467 30.07-2.00467 46.1073-2.00467 46.1073 55.4623 46.1073 112.93 46.1073 170.397 91.5463 170.397 136.986 170.397 182.425 170.397 182.425 145.004 182.425 119.612 182.425 94.2193 165.051 94.2193 147.677 94.2193 130.303 94.2193 130.303 78.182 130.303 62.1446 130.303 46.1073 115.602 46.1073 100.902 46.1073 86.2006 46.1073 86.2006 30.07 86.2006 14.0327 86.2006-2.00467 132.976-2.00467 179.752-2.00467 226.527-2.00467 226.527 72.8363 226.527 147.677 226.527 222.518 150.35 222.518 74.1726 222.518-2.00467 222.518-2.00467 147.677-2.00467 72.8363-2.00467-2.00467Z" fill="#005AAB" fill-rule="evenodd" fill-opacity="0.916" transform="matrix(1.00049 0 0 1 138 198)"/><path d="M310.723-2.00467C318.742-2.00467 326.761-2.00467 334.779-2.00467 340.302 0.939864 346.316 3.61275 352.821 6.014 354.683 3.63076 355.351 0.957874 354.826-2.00467 376.209-2.00467 397.592-2.00467 418.975-2.00467 419.641 39.4467 418.975 80.8763 416.971 122.285 405.728 129.679 393.034 132.352 378.882 130.303 379.045 115.295 376.372 114.626 370.863 128.299 345.471 130.972 320.078 130.972 294.686 128.299 292.681 126.294 290.677 124.289 288.672 122.285 286.668 82.2138 286 42.1204 286.667 2.00467 295.63 3.18628 303.648 1.84984 310.723-2.00467ZM310.723 22.0513C316.777 26.9745 322.791 26.9745 328.765 22.0513 330.701 25.8523 331.369 29.8616 330.77 34.0793 324.088 34.0793 317.406 34.0793 310.723 34.0793 310.723 30.07 310.723 26.0607 310.723 22.0513ZM378.882 22.0513C384.228 22.0513 389.574 22.0513 394.919 22.0513 394.919 27.3971 394.919 32.7429 394.919 38.0887 389.574 38.0887 384.228 38.0887 378.882 38.0887 378.882 32.7429 378.882 27.3971 378.882 22.0513ZM310.723 54.126C317.892 52.9825 324.574 54.3188 330.77 58.1353 327.429 59.4716 324.088 60.8083 320.747 62.1446 315.231 61.4061 311.89 58.7331 310.723 54.126ZM378.882 58.1353C384.228 58.1353 389.574 58.1353 394.919 58.1353 394.919 63.481 394.919 68.827 394.919 74.1726 389.574 74.1726 384.228 74.1726 378.882 74.1726 378.882 68.827 378.882 63.481 378.882 58.1353ZM350.817 78.182C355.307 102.136 355.307 107.482 350.817 94.2193 344.134 94.2193 337.452 94.2193 330.77 94.2193 331.398 99.7257 330.73 105.072 328.765 110.257 323.42 104.911 318.074 104.911 312.728 110.257 310.741 102.347 310.073 94.3288 310.723 86.2006 326.076 88.482 339.441 85.8089 350.817 78.182ZM378.882 94.2193C383.645 98.9676 388.322 98.9676 392.915 94.2193 394.879 99.4042 395.547 104.75 394.919 110.257 389.574 110.257 384.228 110.257 378.882 110.257 378.882 104.911 378.882 99.5649 378.882 94.2193Z" fill="#005AAB" fill-rule="evenodd" fill-opacity="0.76" transform="matrix(1.00049 0 0 1 138 198)"/><path d="M439.022-2.00467C481.789-2.00467 524.553-2.00467 567.32-2.00467 569.919 40.7517 570.588 83.5176 569.325 126.294 551.68 130.17 533.638 131.506 515.199 130.303 515.199 123.621 515.199 116.939 515.199 110.257 544.768 120.781 554.122 111.426 543.265 82.1913 543.79 79.2288 543.12 76.5558 541.26 74.1726 528.939 78.6503 516.242 79.3186 503.171 76.1773 499.944 57.1378 497.939 37.7594 497.157 18.042 493.104 21.3963 488.425 22.7328 483.125 22.0513 483.125 31.4064 483.125 40.7617 483.125 50.1167 487.134 50.1167 491.143 50.1167 495.153 50.1167 496.351 58.5523 495.016 66.571 491.143 74.1726 488.794 73.3335 486.789 71.9972 485.129 70.1633 483.133 82.1175 482.463 94.1455 483.125 106.247 487.134 106.247 491.143 106.247 495.153 106.247 495.153 114.266 495.153 122.285 495.153 130.303 476.441 130.303 457.733 130.303 439.022 130.303 439.022 122.285 439.022 114.266 439.022 106.247 444.366 106.247 449.715 106.247 455.059 106.247 455.059 95.5556 455.059 84.8643 455.059 74.1726 449.715 74.1726 444.366 74.1726 439.022 74.1726 439.022 66.154 439.022 58.1353 439.022 50.1167 444.366 50.1167 449.715 50.1167 455.059 50.1167 455.059 40.7617 455.059 31.4064 455.059 22.0513 449.715 22.0513 444.366 22.0513 439.022 22.0513 439.022 14.0327 439.022 6.014 439.022-2.00467ZM543.265 82.1913C527.227 82.1913 511.19 82.1913 495.153 82.1913 495.153 90.21 495.153 98.2286 495.153 106.247 491.143 106.247 487.134 106.247 483.125 106.247 482.463 94.1455 483.133 82.1175 485.129 70.1633 486.789 71.9972 488.794 73.3335 491.143 74.1726 495.016 66.571 496.351 58.5523 495.153 50.1167 491.143 50.1167 487.134 50.1167 483.125 50.1167 483.125 40.7617 483.125 31.4064 483.125 22.0513 488.425 22.7328 493.104 21.3963 497.157 18.042 497.939 37.7594 499.944 57.1378 503.171 76.1773 516.242 79.3186 528.939 78.6503 541.26 74.1726 543.12 76.5558 543.79 79.2288 543.265 82.1913ZM523.218 22.0513C529.901 22.0513 536.581 22.0513 543.265 22.0513 543.265 32.7429 543.265 43.4343 543.265 54.126 536.581 54.126 529.901 54.126 523.218 54.126 523.218 43.4343 523.218 32.7429 523.218 22.0513Z" fill="#005AAB" fill-rule="evenodd" fill-opacity="0.746" transform="matrix(1.00049 0 0 1 138 198)"/><path d="M603.404-2.00467C612.758-2.00467 622.116-2.00467 631.47-2.00467 634.814 2.99857 640.158 5.67144 647.507 6.014 654.856 5.67144 660.201 2.99857 663.544-2.00467 671.563-2.00467 679.582-2.00467 687.6-2.00467 697.576 5.56431 709.604 8.23717 723.684 6.014 721.018 29.9779 719.683 54.0338 719.675 78.182 688.936 78.182 658.2 78.182 627.461 78.182 628.126 58.0908 627.456 38.0442 625.456 18.042 623.451 56.7758 622.786 95.5328 623.451 134.313 615.432 134.313 607.414 134.313 599.395 134.313 600.061 104.881 599.395 75.4789 597.391 46.1073 596.055 47.4436 594.716 48.7803 593.381 50.1167 592.712 46.1073 592.046 42.098 591.377 38.0887 596.593 25.2713 600.602 11.9069 603.404-2.00467Z" fill="#005AAB" fill-rule="evenodd" fill-opacity="0.734" transform="matrix(1.00049 0 0 1 138 198)"/><path d="M771.796-2.00467C782.489-2.00467 793.178-2.00467 803.871-2.00467 825.822 1.96002 848.543 3.29646 872.03 2.00467 872.03 28.7336 872.03 55.4623 872.03 82.1913 868.518 81.6665 865.843 83.0032 864.011 86.2006 866.128 93.5622 868.798 100.245 872.03 106.247 872.03 114.266 872.03 122.285 872.03 130.303 841.262 130.97 810.523 130.302 779.815 128.299 776.812 121.348 774.807 113.997 773.801 106.247 771.937 126.586 760.574 134.605 739.722 130.303 741.35 116.32 745.359 102.955 751.75 90.21 747.881 61.0381 746.542 31.6363 747.74 2.00467 756.701 3.18628 764.72 1.84984 771.796-2.00467Z" fill="#005AAB" fill-rule="evenodd" fill-opacity="0.752" transform="matrix(1.00049 0 0 1 138 198)"/><path d="M543.265 82.1913C543.265 90.21 543.265 98.2286 543.265 106.247 527.227 106.247 511.19 106.247 495.153 106.247 495.153 98.2286 495.153 90.21 495.153 82.1913 511.19 82.1913 527.227 82.1913 543.265 82.1913Z" fill="#005AAB" fill-rule="evenodd" fill-opacity="0.655" transform="matrix(1.00049 0 0 1 138 198)"/><path d="M627.461 82.1913C660.225 80.3242 692.299 82.3288 723.684 88.2053 721.01 101.57 718.34 114.934 715.666 128.299 686.293 130.302 656.893 130.97 627.461 130.303 627.461 114.266 627.461 98.2286 627.461 82.1913ZM651.516 102.238C666.455 100.945 681.157 102.281 695.619 106.247 688.27 107.584 680.917 108.92 673.568 110.257 664.366 110.07 657.013 107.397 651.516 102.238Z" fill="#005AAB" fill-rule="evenodd" fill-opacity="0.838" transform="matrix(1.00049 0 0 1 138 198)"/><path d="M318.742 146.341C321.704 145.815 324.377 146.484 326.761 148.345 320.387 172.557 316.378 197.282 314.733 222.518 306.714 222.518 298.695 222.518 290.677 222.518 292.828 198.399 295.501 174.343 298.695 150.35 306.372 151.491 313.054 150.154 318.742 146.341Z" fill="#221814" fill-rule="evenodd" fill-opacity="0.71" transform="matrix(1.00049 0 0 1 138 198)"/><path d="M763.778 186.434C759.768 186.434 755.759 186.434 751.75 186.434 755.382 198.205 758.052 210.233 759.768 222.518 746.999 224.444 735.636 221.771 725.689 214.499 728.62 201.839 727.954 189.143 723.684 176.411 728.44 165.463 738.463 156.776 753.754 150.35 760.622 152.906 761.288 156.915 755.759 162.378 759.271 165.388 763.281 167.393 767.787 168.392 764.259 173.829 762.92 179.843 763.778 186.434Z" fill="#221814" fill-rule="evenodd" fill-opacity="0.703" transform="matrix(1.00049 0 0 1 138 198)"/><path d="M382.891 202.471C366.257 225.181 346.879 227.854 324.756 210.49 320.745 175.755 336.114 161.722 370.863 168.392 381.389 177.197 385.398 188.557 382.891 202.471ZM346.807 186.434C350.817 186.434 354.826 186.434 358.835 186.434 360.375 195.113 357.702 201.796 350.817 206.481 347 200.285 345.664 193.603 346.807 186.434Z" fill="#221814" fill-rule="evenodd" fill-opacity="0.744" transform="matrix(1.00049 0 0 1 138 198)"/><path d="M447.041 186.434C443.131 197.705 440.457 209.733 439.022 222.518 431.003 222.518 422.985 222.518 414.966 222.518 417.512 210.518 418.177 198.49 416.971 186.434 411.374 197.652 408.03 209.68 406.947 222.518 398.929 222.518 390.91 222.518 382.891 222.518 382.891 215.836 382.891 209.154 382.891 202.471 386.154 193.927 388.159 184.572 388.905 174.406 391.607 170.082 395.616 167.409 400.933 166.387 413.338 168.24 426.036 168.908 439.022 168.392 442.097 174.288 444.767 180.302 447.041 186.434Z" fill="#221814" fill-rule="evenodd" fill-opacity="0.685" transform="matrix(1.00049 0 0 1 138 198)"/><path d="M491.143 238.555C476.441 238.555 461.743 238.555 447.041 238.555 443.829 232.374 442.494 225.691 443.031 218.509 454.402 219.703 456.406 217.03 449.045 210.49 447.061 202.581 446.391 194.562 447.041 186.434 451.435 180.006 456.783 173.992 463.078 168.392 478.839 168.321 494.876 168.99 511.19 170.397 507.67 187.673 504.326 205.047 501.167 222.518 498.512 228.467 495.169 233.813 491.143 238.555ZM471.097 186.434C485.245 188.558 486.581 193.904 475.106 202.471 471.381 197.705 470.046 192.359 471.097 186.434Z" fill="#221814" fill-rule="evenodd" fill-opacity="0.742" transform="matrix(1.00049 0 0 1 138 198)"/><path d="M515.199 166.387C527.147 168.492 538.505 168.492 549.279 166.387 556.138 166.144 561.483 168.817 565.316 174.406 592.575 161.441 604.603 170.797 601.4 202.471 612.097 196.536 612.766 190.522 603.404 184.429 614.963 167.521 631.001 162.175 651.516 168.392 659.006 171.996 663.015 178.01 663.544 186.434 660.329 198.256 658.99 210.284 659.535 222.518 642.195 217.923 624.822 217.254 607.414 220.513 602.599 216.895 599.255 212.217 597.391 206.481 595.426 211.665 594.756 217.012 595.386 222.518 587.367 222.518 579.349 222.518 571.33 222.518 573.876 210.518 574.541 198.49 573.334 186.434 566.904 197.448 563.56 209.476 563.311 222.518 555.292 222.518 547.274 222.518 539.255 222.518 540.767 210.391 541.436 198.363 541.26 186.434 536.653 196.528 533.313 207.22 531.237 218.509 523.635 222.38 515.616 223.716 507.181 222.518 509.482 203.742 512.152 185.031 515.199 166.387ZM631.47 198.462C636.574 200.775 636.574 203.448 631.47 206.481 627.609 204.597 627.609 201.924 631.47 198.462Z" fill="#221814" fill-rule="evenodd" fill-opacity="0.698" transform="matrix(1.00049 0 0 1 138 198)"/><path d="M679.582 166.387C690.355 165.729 701.048 166.398 711.656 168.392 717.819 172.841 720.489 178.855 719.675 186.434 715.457 185.835 711.448 186.503 707.647 188.439 724.065 200.485 722.726 211.176 703.638 220.513 692.945 223.186 682.256 223.186 671.563 220.513 665.401 216.065 662.731 210.051 663.544 202.471 669.049 203.1 674.398 202.431 679.582 200.467 671.924 198.83 667.915 194.152 667.554 186.434 669.927 178.726 673.937 172.044 679.582 166.387Z" fill="#221814" fill-rule="evenodd" fill-opacity="0.68" transform="matrix(1.00049 0 0 1 138 198)"/><path d="M872.03 166.387C872.03 171.733 872.03 177.079 872.03 182.425 869.42 184.793 866.745 187.466 864.011 190.443 860.302 185.871 856.959 185.871 853.988 190.443 857.432 214.482 847.408 225.173 823.918 222.518 824.559 215.705 823.894 209.023 821.913 202.471 810.314 221.863 793.611 227.208 771.796 218.509 764.864 209.082 762.19 198.391 763.778 186.434 774.759 168.289 790.797 162.275 811.89 168.392 821.456 175.785 826.135 185.808 825.922 198.462 828.196 187.766 830.2 177.075 831.936 166.387 845.708 169.867 859.076 169.867 872.03 166.387ZM791.843 186.434C794.156 181.329 796.827 181.329 799.862 186.434 797.977 190.295 795.303 190.295 791.843 186.434Z" fill="#221814" fill-rule="evenodd" fill-opacity="0.685" transform="matrix(1.00049 0 0 1 138 198)"/></g></svg>